<?xml version="1.0" encoding="utf-8"?><!DOCTYPE svg PUBLIC "-//W3C//DTD SVG 1.1//EN" "http://www.w3.org/Graphics/SVG/1.1/DTD/svg11.dtd"> <svg version="1.1" id="Layer_1" xmlns="http://www.w3.org/2000/svg" xmlns:xlink="http://www.w3.org/1999/xlink" x="0px" y="0px" width="100%" height="100%" viewBox="0 0 1060.000000 1165.000000" enable-background="new 0 0 1060.000000 1165.000000" xml:space="preserve"> 

<!-- <rect width="1000" height="1000" style="fill:none;stroke-width:3;stroke:rgb(0,0,0)" /> -->

<g transform="translate(130.000000,20.000000) scale(0.660000)">

	<path d="M482.871,2.279c0,0 223.826,233.299 59.149,346.263c0,0 56.452,99.302 61.713,107.018c5.26,7.715 79.071,100.79 0.044,194.918c0,0 -236.391,187.413 -275.589,187.775c0,0 141.218,62.729 209.686,-53.607c0,0 -53.284,47.621 -136.249,49.027c0,0 127.924,97.863 138.813,-96.133c0,0 48.435,-103.734 88.912,-63.212c40.478,40.521 112.52,104.123 112.52,104.123c0,0 63.283,72.68 -82.564,92.559c0,0 -36.018,26.15 -70.955,21.608c0,0 25.623,-85.425 86.298,-55.101l12.971,82.202l-145.485,127.736c0,0 119.703,39.67 120.746,-61.361c0,0 -39.632,36.501 -71.356,34.052l60.637,-49.555c0,0 -44.174,106.167 -53.289,143.036c0,0 -28.468,60.439 -75.129,68.193l-326.505,-10.483c0,0 -74.964,66.693 -105.771,83.162c0,0 -87.863,84.322 -88.95,147.336" style="fill:none;stroke-width:3.5px;stroke:#000000;"/>

	<path d="M1000.71,460.672l-242.54,299.602c0,0 -14.937,0.039 -35.497,-28.231c-20.56,-28.27 -31.724,-19.945 -3.493,-109.384c28.232,-89.439 89.785,-193.717 -32.646,-279.092c0,0 -52.521,-12.169 -28.468,-87.825l-0.082,-0.027c0,0 26.584,-43.333 -4.778,-83.536l-45.617,-33.536c0,0 -33.773,-36.024 -73.932,22.97c-40.159,58.995 -78.467,111.153 -78.467,111.153l-53.564,63.805c0,0 -50.916,52.081 2.812,89.467c0,0 35.145,-107.265 129.79,-38.913c94.645,68.352 -58.786,162.591 -100.268,160.867c0,0 -8.27,-30.725 2.894,-67.831c0,0 13.888,-50.598 11.801,-72.284c0,0 136.254,57.853 48.111,141.141c0,0 -75.491,68.034 -113.844,-27.462c0,0 -64.414,44.925 -86.781,80.224c0,0 -65.376,71.076 -98.264,90.955c0,0 -53.487,39.961 -10.56,72.767c42.927,32.806 68.621,55.541 99.791,38.754c31.169,-16.788 19.681,-25.497 20.724,-33.213c1.044,-7.715 -34.321,-30.724 -93.64,-5.222c0,0 117.929,46.902 48.902,104.81c0,0 -14.816,40.351 7.188,54.008c0,0 49.516,-16.831 59.593,5.541l-60.598,27.106c0,0 -32.169,18.709 -1.043,41.037c0,0 45.101,24.651 11.608,55.777c0,0 -70.23,58.511 -24.777,148.868c0,0 57.907,108.857 247.84,61.916l120.79,-16.464c0,0 76.902,-27.226 143.398,84.569c0,0 77.089,125.281 99.461,146.929" style="fill:none;stroke-width:3.5px;stroke:#000000;"/>

</g>

	  <g transform="scale(0.8) translate(1100,1300)">
	 	<path d="M44.583,31.682c0,0 -21.124,-24.659 -34.992,-1.143c-13.868,23.515 32.057,55.036 35.463,32.628c3.406,-22.408 2.721,-43.776 -3.906,-37.391c-6.627,6.385 -9.29,10.404 -3.471,19.631c5.82,9.227 20.609,52.552 26.25,51.123c5.642,-1.429 1.501,-16.816 -0.613,-29.278c-2.114,-12.462 -4.156,-24.902 -4.156,-24.902c0,0 2.349,26.244 7.612,27.237c5.263,0.992 15.417,-0.608 9.476,-26.43c-5.942,-25.822 0.994,22.758 6.749,23.872c5.755,1.114 13.625,0.314 15.424,-3.592c1.8,-3.906 -6.19,-26.814 -6.748,-28.55c-0.557,-1.735 5.935,36.205 17.025,27.414c11.09,-8.791 5.019,-12.817 4.648,-14.31c-0.371,-1.493 -11.091,-42.041 -12.833,-40.734c-1.742,1.306 11.561,53.515 21.537,50.715c9.977,-2.799 14.192,-12.446 9.049,-18.395c-5.142,-5.949 2.729,-1.108 3.842,-1.85c1.113,-0.742 16.289,-7.24 10.033,-12.81c-6.256,-5.571 -14.118,-10.09 -12.262,-1.857c1.857,8.234 15.232,40.876 21.666,27.793" style="fill:none;stroke-width:3.38px;stroke:#000;"/><path d="M86.866,21.546c-1.191,4.402 -2.035,4.992 1.806,4.992c3.842,0 7.563,-1.179 4.956,-3.721c-2.606,-2.542 -6.569,-1.986 -6.762,-1.271Z" style="fill:none;stroke-width:3.38px;stroke:#000;"/>
	 </g>

</svg>
